<?xml version="1.0" encoding="UTF-8"?>
<svg width="464px" height="67px" viewBox="0 0 464 67" version="1.1" xmlns="http://www.w3.org/2000/svg" xmlns:xlink="http://www.w3.org/1999/xlink">
    <!-- Generator: Sketch 43.2 (39069) - http://www.bohemiancoding.com/sketch -->
    <title>Group 2</title>
    <desc>Created with Sketch.</desc>
    <defs></defs>
    <g id="Page-1" stroke="none" stroke-width="1" fill="none" fill-rule="evenodd">
        <g id="Group-2" transform="translate(1.000000, 1.000000)" stroke-width="2" stroke="#CBF2EF">
            <g id="thin-0545_map_travel_distance_directions" transform="translate(109.000000, 0.000000)">
                <g id="Group">
                    <path d="M27.3159314,14.1615543 C27.3159314,21.5998171 13.8474057,42.0670171 13.8474057,42.0670171 C13.8474057,42.0670171 0.379245714,21.5998171 0.379245714,14.1615543 C0.379245714,6.72329143 6.40914286,0.693028571 13.8477714,0.693028571 C21.2864,0.693028571 27.3159314,6.72292571 27.3159314,14.1615543 L27.3159314,14.1615543 Z" id="Shape"></path>
                    <circle id="Oval" cx="13.84704" cy="13.1313371" r="4.79305143"></circle>
                    <path d="M82.3698286,35.8846171 C82.3698286,43.32288 68.9013029,63.79008 68.9013029,63.79008 C68.9013029,63.79008 55.4327771,43.3232457 55.4327771,35.8846171 C55.4327771,28.4459886 61.4626743,22.4160914 68.9013029,22.4160914 C76.3399314,22.4160914 82.3698286,28.4463543 82.3698286,35.8846171 L82.3698286,35.8846171 Z" id="Shape"></path>
                    <circle id="Oval" cx="68.9009371" cy="34.8544" r="4.79305143"></circle>
                    <path d="M13.8474057,49.3308343 L63.6496457,63.79008" id="Shape"></path>
                </g>
            </g>
            <g id="thin-0475_bike_bycicle_transport" transform="translate(0.000000, 9.000000)">
                <g id="Group">
                    <path d="M45.1430913,0.788413043 L48.1491043,0.788413043 C48.1491043,0.788413043 49.8133087,0.686304348 50.4731652,2.30464348 C50.5973696,2.6159913 51.4396826,7.31366087 52.5471435,10.615287 C55.0409391,18.0652043 62.832,31.1016391 62.832,31.1016391" id="Shape"></path>
                    <path d="M37.8200565,29.5398783 L53.987713,14.2915348" id="Shape"></path>
                    <polyline id="Shape" points="52.5474783 10.7662739 30.0390391 10.7662739 34.5863913 27.9493261"></polyline>
                    <polyline id="Shape" points="30.0390391 6.38028696 30.0390391 10.7662739 15.0745913 29.5301696"></polyline>
                    <path d="M26.8555913,35.0329913 C25.1401652,40.5803391 19.9694478,44.6121261 13.8583261,44.6121261 C6.34848261,44.6121261 0.256443478,38.5214261 0.256443478,31.0115826 C0.256443478,23.5004 6.34881739,17.4097 13.8583261,17.4097 C20.4307783,17.4097 25.9155217,22.3413826 27.184013,28.539213" id="Shape"></path>
                    <circle id="Oval" cx="63.042913" cy="31.0119174" r="13.6018826"></circle>
                    <path d="M34.5863913,27.9493261 C34.2964696,27.9493261 13.8579913,29.6299348 13.8579913,29.6299348 C12.9741652,29.6299348 12.2573957,30.3463696 12.2573957,31.2305304 C12.2573957,32.0440522 12.8737304,32.6891783 13.6591304,32.7909522 L13.6577913,32.8150565 C13.6577913,32.8150565 34.1508391,36.1555174 34.5860565,36.1555174 C36.8518652,36.1555174 38.6888174,34.3168913 38.6888174,32.0527565 C38.689487,29.7849391 36.8525348,27.9493261 34.5863913,27.9493261 L34.5863913,27.9493261 Z" id="Shape"></path>
                    <path d="M24.7471304,1.05791304 C24.7471304,1.05791304 39.5803435,2.27083043 37.1009435,3.3705913 C33.2198087,5.09237826 30.0370304,6.38028696 30.0370304,6.38028696 C26.6563957,6.63472174 16.4070261,1.2782 24.7471304,1.05791304 L24.7471304,1.05791304 Z" id="Shape"></path>
                </g>
            </g>
            <g id="thin-0760_weather_sun_summer" transform="translate(303.000000, 0.000000)">
                <g id="Group">
                    <circle id="Oval" cx="31.9726933" cy="31.8264889" r="10.0545422"></circle>
                    <path d="M51.1453867,31.8859378 L63.55712,31.8859378" id="Shape"></path>
                    <path d="M0.431786667,31.8859378 L12.8420978,31.8859378" id="Shape"></path>
                    <path d="M31.9926044,12.7351467 L31.9926044,0.323128889" id="Shape"></path>
                    <path d="M31.9926044,63.4481778 L31.9926044,51.0364444" id="Shape"></path>
                    <path d="M45.9403378,17.9396267 L54.7160178,9.16451556" id="Shape"></path>
                    <path d="M9.27288889,54.6067911 L18.0488533,45.83168" id="Shape"></path>
                    <path d="M45.9403378,45.83168 L54.7160178,54.6067911" id="Shape"></path>
                    <path d="M9.27288889,9.16451556 L18.0488533,17.9396267" id="Shape"></path>
                </g>
            </g>
            <g id="thin-0989_long_sleeves_shirt" transform="translate(399.000000, 0.000000)">
                <g id="Group">
                    <path d="M20.9922783,1.4144 C20.9922783,1.4144 31.5049739,-0.443547826 41.6954435,1.4144" id="Shape"></path>
                    <path d="M19.9641043,6.65878261 C16.1185391,7.69446957 10.3788522,11.5475478 8.56653913,12.0428522 C5.40855652,12.9074087 0.102956522,62.9871304 0.102956522,62.9871304 L8.59770435,62.9871304 L15.808,25.7544348 L14.3643826,61.7997913 C14.3643826,61.7997913 18.7392,65.0877217 32.3133217,63.0825739 C45.8941217,61.076313 48.0239304,61.7997913 48.0239304,61.7997913 L46.8797217,25.8905043 L54.0900174,63.1232 L62.5847652,63.1232 C62.5847652,63.1232 57.278887,13.0437565 54.1209043,12.1789217 C52.3085913,11.6836174 46.4606609,7.14490435 42.6148174,6.10921739" id="Shape"></path>
                    <path d="M0.91186087,55 L9.99958261,55" id="Shape"></path>
                    <path d="M52.6619826,55 L61.76,55" id="Shape"></path>
                    <polyline id="Shape" points="31.3438609 10.8900174 27.8502957 13.3389913 20.0183652 6.07554783 20.9922783 1.4144 31.3438609 10.8900174"></polyline>
                    <polyline id="Shape" points="31.3438609 10.8900174 41.6954435 1.4144 42.6693565 6.07554783 34.8374261 13.3389913 31.3438609 10.8900174 31.3438609 63.2122435"></polyline>
                </g>
            </g>
            <g id="thin-0952_thermometer_temperature_hot" transform="translate(224.000000, 0.000000)">
                <g id="Group">
                    <path d="M38.0140731,2.77938925 L38.0140731,19.1939441" id="Shape"></path>
                    <path d="M29.8069333,10.986529 L46.2214882,10.986529" id="Shape"></path>
                    <path d="M7.49474409,45.9484215 C5.5808,47.7852903 4.38420645,50.3634581 4.38420645,53.2257032 C4.38420645,58.7998968 8.90301935,63.3187097 14.4774882,63.3187097 C20.051957,63.3187097 24.5707699,58.7996215 24.5707699,53.2257032 C24.5707699,50.0840602 23.135243,47.2787957 20.8846452,45.4276129 L20.8846452,7.03229247 C20.8348215,3.0675957 17.8192516,0.338030108 14.2132301,0.338030108 C10.3368946,0.338030108 7.49501935,3.57766882 7.49501935,6.91447742 L7.49501935,45.9484215 L7.49474409,45.9484215 Z" id="Shape"></path>
                    <circle id="Oval" cx="14.4774882" cy="53.7140301" r="1.88972043"></circle>
                    <path d="M14.4774882,51.8243097 L14.4774882,15.4852473" id="Shape"></path>
                    <path d="M0.408223656,11.1081978 L7.49474409,11.1081978" id="Shape"></path>
                    <path d="M0.408223656,24.8730151 L7.49474409,24.8730151" id="Shape"></path>
                    <path d="M0.408223656,38.6378323 L7.49474409,38.6378323" id="Shape"></path>
                </g>
            </g>
        </g>
    </g>
</svg>